# xmcd CD database file
#
# Track frame offsets:
#	182
#	20997
#	42572
#	57745
#	76425
#	96495
#	118250
#	138695
#	142337
#	170005
#
# Disc length: 2487 seconds
#
# Revision: 0
# Processed by: cddbd v1.4PL0 Copyright (c) Steve Scherf et al.
# Submitted via: CDex 1.50beta8
#
DISCID=aa09b50a
DTITLE=Daniel Goyone - Third Time
DYEAR=1989
DGENRE=Jazz
TTITLE0=Dance of the lords
TTITLE1=Miniature #2 - Elfes
TTITLE2=Otem-reh
TTITLE3=Kelim
TTITLE4=Oceanide
TTITLE5=Third time
TTITLE6=Arborescence #4
TTITLE7=Virgule #1
TTITLE8=Dance des grues
TTITLE9=All valtz
EXTD=YEAR: 1989
EXTT0=
EXTT1=
EXTT2=
EXTT3=
EXTT4=
EXTT5=
EXTT6=
EXTT7=
EXTT8=
EXTT9=
PLAYORDER=
